<?xml version="1.0" encoding="UTF-8" standalone="no"?>
<!DOCTYPE svg PUBLIC "-//W3C//DTD SVG 1.1//EN"
 "http://www.w3.org/Graphics/SVG/1.1/DTD/svg11.dtd">
<!-- Generated by graphviz version 12.2.1 (20241206.2353)
 -->
<!-- Title: G Pages: 1 -->
<svg width="552pt" height="949pt"
 viewBox="0.00 0.00 552.20 948.95" xmlns="http://www.w3.org/2000/svg" xmlns:xlink="http://www.w3.org/1999/xlink">
<g id="graph0" class="graph" transform="scale(1 1) rotate(0) translate(21.6 927.35)">
<title>G</title>
<polygon fill="#111111" stroke="none" points="-21.6,21.6 -21.6,-927.35 530.6,-927.35 530.6,21.6 -21.6,21.6"/>
<!-- CHANGELOG.md -->
<g id="node1" class="node">
<title>CHANGELOG.md</title>
<path fill="none" stroke="#cfffac" d="M179.83,-23.75C179.83,-23.75 67.92,-23.75 67.92,-23.75 63.96,-23.75 60,-19.79 60,-15.83 60,-15.83 60,-7.92 60,-7.92 60,-3.96 63.96,0 67.92,0 67.92,0 179.83,0 179.83,0 183.79,0 187.75,-3.96 187.75,-7.92 187.75,-7.92 187.75,-15.83 187.75,-15.83 187.75,-19.79 183.79,-23.75 179.83,-23.75"/>
<text text-anchor="middle" x="123.88" y="-6.45" font-family="Arial" font-size="14.00" fill="#cfffac">CHANGELOG.md</text>
</g>
<!-- __tests__/index.ts -->
<g id="node2" class="node">
<title>__tests__/index.ts</title>
<path fill="none" stroke="#cfffac" d="M178.33,-65.75C178.33,-65.75 69.42,-65.75 69.42,-65.75 65.46,-65.75 61.5,-61.79 61.5,-57.83 61.5,-57.83 61.5,-49.92 61.5,-49.92 61.5,-45.96 65.46,-42 69.42,-42 69.42,-42 178.33,-42 178.33,-42 182.29,-42 186.25,-45.96 186.25,-49.92 186.25,-49.92 186.25,-57.83 186.25,-57.83 186.25,-61.79 182.29,-65.75 178.33,-65.75"/>
<text text-anchor="middle" x="123.88" y="-48.45" font-family="Arial" font-size="14.00" fill="#cfffac">__tests__/index.ts</text>
</g>
<!-- app/error.tsx -->
<g id="node3" class="node">
<title>app/error.tsx</title>
<path fill="none" stroke="#cfffac" d="M161.46,-107.75C161.46,-107.75 86.29,-107.75 86.29,-107.75 82.33,-107.75 78.38,-103.79 78.38,-99.83 78.38,-99.83 78.38,-91.92 78.38,-91.92 78.38,-87.96 82.33,-84 86.29,-84 86.29,-84 161.46,-84 161.46,-84 165.42,-84 169.38,-87.96 169.38,-91.92 169.38,-91.92 169.38,-99.83 169.38,-99.83 169.38,-103.79 165.42,-107.75 161.46,-107.75"/>
<text text-anchor="middle" x="123.88" y="-90.45" font-family="Arial" font-size="14.00" fill="#cfffac">app/error.tsx</text>
</g>
<!-- app/global&#45;error.tsx -->
<g id="node4" class="node">
<title>app/global&#45;error.tsx</title>
<path fill="none" stroke="#cfffac" d="M181.71,-149.75C181.71,-149.75 66.04,-149.75 66.04,-149.75 62.08,-149.75 58.12,-145.79 58.12,-141.83 58.12,-141.83 58.12,-133.92 58.12,-133.92 58.12,-129.96 62.08,-126 66.04,-126 66.04,-126 181.71,-126 181.71,-126 185.67,-126 189.62,-129.96 189.62,-133.92 189.62,-133.92 189.62,-141.83 189.62,-141.83 189.62,-145.79 185.67,-149.75 181.71,-149.75"/>
<text text-anchor="middle" x="123.88" y="-132.45" font-family="Arial" font-size="14.00" fill="#cfffac">app/global&#45;error.tsx</text>
</g>
<!-- app/layout.tsx -->
<g id="node5" class="node">
<title>app/layout.tsx</title>
<path fill="none" stroke="#c6c5fe" d="M165.58,-191.75C165.58,-191.75 82.17,-191.75 82.17,-191.75 78.21,-191.75 74.25,-187.79 74.25,-183.83 74.25,-183.83 74.25,-175.92 74.25,-175.92 74.25,-171.96 78.21,-168 82.17,-168 82.17,-168 165.58,-168 165.58,-168 169.54,-168 173.5,-171.96 173.5,-175.92 173.5,-175.92 173.5,-183.83 173.5,-183.83 173.5,-187.79 169.54,-191.75 165.58,-191.75"/>
<text text-anchor="middle" x="123.88" y="-174.45" font-family="Arial" font-size="14.00" fill="#c6c5fe">app/layout.tsx</text>
</g>
<!-- styles/globals.scss -->
<g id="node6" class="node">
<title>styles/globals.scss</title>
<path fill="none" stroke="#cfffac" d="M452.33,-191.75C452.33,-191.75 340.42,-191.75 340.42,-191.75 336.46,-191.75 332.5,-187.79 332.5,-183.83 332.5,-183.83 332.5,-175.92 332.5,-175.92 332.5,-171.96 336.46,-168 340.42,-168 340.42,-168 452.33,-168 452.33,-168 456.29,-168 460.25,-171.96 460.25,-175.92 460.25,-175.92 460.25,-183.83 460.25,-183.83 460.25,-187.79 456.29,-191.75 452.33,-191.75"/>
<text text-anchor="middle" x="396.38" y="-174.45" font-family="Arial" font-size="14.00" fill="#cfffac">styles/globals.scss</text>
</g>
<!-- app/layout.tsx&#45;&gt;styles/globals.scss -->
<g id="edge1" class="edge">
<title>app/layout.tsx&#45;&gt;styles/globals.scss</title>
<path fill="none" stroke="#757575" d="M173.86,-179.88C214.93,-179.88 274.21,-179.88 321.12,-179.88"/>
<polygon fill="#757575" stroke="#757575" points="320.94,-183.38 330.94,-179.88 320.94,-176.38 320.94,-183.38"/>
</g>
<!-- app/loading.tsx -->
<g id="node7" class="node">
<title>app/loading.tsx</title>
<path fill="none" stroke="#cfffac" d="M169.33,-233.75C169.33,-233.75 78.42,-233.75 78.42,-233.75 74.46,-233.75 70.5,-229.79 70.5,-225.83 70.5,-225.83 70.5,-217.92 70.5,-217.92 70.5,-213.96 74.46,-210 78.42,-210 78.42,-210 169.33,-210 169.33,-210 173.29,-210 177.25,-213.96 177.25,-217.92 177.25,-217.92 177.25,-225.83 177.25,-225.83 177.25,-229.79 173.29,-233.75 169.33,-233.75"/>
<text text-anchor="middle" x="123.88" y="-216.45" font-family="Arial" font-size="14.00" fill="#cfffac">app/loading.tsx</text>
</g>
<!-- app/not&#45;found.tsx -->
<g id="node8" class="node">
<title>app/not&#45;found.tsx</title>
<path fill="none" stroke="#cfffac" d="M176.08,-275.75C176.08,-275.75 71.67,-275.75 71.67,-275.75 67.71,-275.75 63.75,-271.79 63.75,-267.83 63.75,-267.83 63.75,-259.92 63.75,-259.92 63.75,-255.96 67.71,-252 71.67,-252 71.67,-252 176.08,-252 176.08,-252 180.04,-252 184,-255.96 184,-259.92 184,-259.92 184,-267.83 184,-267.83 184,-271.79 180.04,-275.75 176.08,-275.75"/>
<text text-anchor="middle" x="123.88" y="-258.45" font-family="Arial" font-size="14.00" fill="#cfffac">app/not&#45;found.tsx</text>
</g>
<!-- app/page.tsx -->
<g id="node9" class="node">
<title>app/page.tsx</title>
<path fill="none" stroke="#cfffac" d="M162.58,-317.75C162.58,-317.75 85.17,-317.75 85.17,-317.75 81.21,-317.75 77.25,-313.79 77.25,-309.83 77.25,-309.83 77.25,-301.92 77.25,-301.92 77.25,-297.96 81.21,-294 85.17,-294 85.17,-294 162.58,-294 162.58,-294 166.54,-294 170.5,-297.96 170.5,-301.92 170.5,-301.92 170.5,-309.83 170.5,-309.83 170.5,-313.79 166.54,-317.75 162.58,-317.75"/>
<text text-anchor="middle" x="123.88" y="-300.45" font-family="Arial" font-size="14.00" fill="#cfffac">app/page.tsx</text>
</g>
<!-- app/robots.ts -->
<g id="node10" class="node">
<title>app/robots.ts</title>
<path fill="none" stroke="#cfffac" d="M162.96,-359.75C162.96,-359.75 84.79,-359.75 84.79,-359.75 80.83,-359.75 76.88,-355.79 76.88,-351.83 76.88,-351.83 76.88,-343.92 76.88,-343.92 76.88,-339.96 80.83,-336 84.79,-336 84.79,-336 162.96,-336 162.96,-336 166.92,-336 170.88,-339.96 170.88,-343.92 170.88,-343.92 170.88,-351.83 170.88,-351.83 170.88,-355.79 166.92,-359.75 162.96,-359.75"/>
<text text-anchor="middle" x="123.88" y="-342.45" font-family="Arial" font-size="14.00" fill="#cfffac">app/robots.ts</text>
</g>
<!-- app/sitemap.ts -->
<g id="node11" class="node">
<title>app/sitemap.ts</title>
<path fill="none" stroke="#cfffac" d="M168.21,-401.75C168.21,-401.75 79.54,-401.75 79.54,-401.75 75.58,-401.75 71.62,-397.79 71.62,-393.83 71.62,-393.83 71.62,-385.92 71.62,-385.92 71.62,-381.96 75.58,-378 79.54,-378 79.54,-378 168.21,-378 168.21,-378 172.17,-378 176.12,-381.96 176.12,-385.92 176.12,-385.92 176.12,-393.83 176.12,-393.83 176.12,-397.79 172.17,-401.75 168.21,-401.75"/>
<text text-anchor="middle" x="123.88" y="-384.45" font-family="Arial" font-size="14.00" fill="#cfffac">app/sitemap.ts</text>
</g>
<!-- app/template.tsx -->
<g id="node12" class="node">
<title>app/template.tsx</title>
<path fill="none" stroke="#cfffac" d="M173.83,-443.75C173.83,-443.75 73.92,-443.75 73.92,-443.75 69.96,-443.75 66,-439.79 66,-435.83 66,-435.83 66,-427.92 66,-427.92 66,-423.96 69.96,-420 73.92,-420 73.92,-420 173.83,-420 173.83,-420 177.79,-420 181.75,-423.96 181.75,-427.92 181.75,-427.92 181.75,-435.83 181.75,-435.83 181.75,-439.79 177.79,-443.75 173.83,-443.75"/>
<text text-anchor="middle" x="123.88" y="-426.45" font-family="Arial" font-size="14.00" fill="#cfffac">app/template.tsx</text>
</g>
<!-- components/Providers.tsx -->
<g id="node13" class="node">
<title>components/Providers.tsx</title>
<path fill="none" stroke="#cfffac" d="M474.46,-485.75C474.46,-485.75 318.29,-485.75 318.29,-485.75 314.33,-485.75 310.38,-481.79 310.38,-477.83 310.38,-477.83 310.38,-469.92 310.38,-469.92 310.38,-465.96 314.33,-462 318.29,-462 318.29,-462 474.46,-462 474.46,-462 478.42,-462 482.38,-465.96 482.38,-469.92 482.38,-469.92 482.38,-477.83 482.38,-477.83 482.38,-481.79 478.42,-485.75 474.46,-485.75"/>
<text text-anchor="middle" x="396.38" y="-468.45" font-family="Arial" font-size="14.00" fill="#cfffac">components/Providers.tsx</text>
</g>
<!-- components/index.ts -->
<g id="node14" class="node">
<title>components/index.ts</title>
<path fill="none" stroke="#c6c5fe" d="M186.21,-485.75C186.21,-485.75 61.54,-485.75 61.54,-485.75 57.58,-485.75 53.62,-481.79 53.62,-477.83 53.62,-477.83 53.62,-469.92 53.62,-469.92 53.62,-465.96 57.58,-462 61.54,-462 61.54,-462 186.21,-462 186.21,-462 190.17,-462 194.12,-465.96 194.12,-469.92 194.12,-469.92 194.12,-477.83 194.12,-477.83 194.12,-481.79 190.17,-485.75 186.21,-485.75"/>
<text text-anchor="middle" x="123.88" y="-468.45" font-family="Arial" font-size="14.00" fill="#c6c5fe">components/index.ts</text>
</g>
<!-- components/index.ts&#45;&gt;components/Providers.tsx -->
<g id="edge2" class="edge">
<title>components/index.ts&#45;&gt;components/Providers.tsx</title>
<path fill="none" stroke="#757575" d="M194.54,-473.88C226.18,-473.88 264.14,-473.88 298.5,-473.88"/>
<polygon fill="#757575" stroke="#757575" points="298.49,-477.38 308.49,-473.88 298.49,-470.38 298.49,-477.38"/>
</g>
<!-- components/ui/Accordion/index.tsx -->
<g id="node15" class="node">
<title>components/ui/Accordion/index.tsx</title>
<path fill="none" stroke="#cfffac" d="M501.08,-611.75C501.08,-611.75 291.67,-611.75 291.67,-611.75 287.71,-611.75 283.75,-607.79 283.75,-603.83 283.75,-603.83 283.75,-595.92 283.75,-595.92 283.75,-591.96 287.71,-588 291.67,-588 291.67,-588 501.08,-588 501.08,-588 505.04,-588 509,-591.96 509,-595.92 509,-595.92 509,-603.83 509,-603.83 509,-607.79 505.04,-611.75 501.08,-611.75"/>
<text text-anchor="middle" x="396.38" y="-594.45" font-family="Arial" font-size="14.00" fill="#cfffac">components/ui/Accordion/index.tsx</text>
</g>
<!-- components/ui/Alert/index.tsx -->
<g id="node16" class="node">
<title>components/ui/Alert/index.tsx</title>
<path fill="none" stroke="#cfffac" d="M484.96,-569.75C484.96,-569.75 307.79,-569.75 307.79,-569.75 303.83,-569.75 299.88,-565.79 299.88,-561.83 299.88,-561.83 299.88,-553.92 299.88,-553.92 299.88,-549.96 303.83,-546 307.79,-546 307.79,-546 484.96,-546 484.96,-546 488.92,-546 492.88,-549.96 492.88,-553.92 492.88,-553.92 492.88,-561.83 492.88,-561.83 492.88,-565.79 488.92,-569.75 484.96,-569.75"/>
<text text-anchor="middle" x="396.38" y="-552.45" font-family="Arial" font-size="14.00" fill="#cfffac">components/ui/Alert/index.tsx</text>
</g>
<!-- components/ui/Button/index.stories.tsx -->
<g id="node17" class="node">
<title>components/ui/Button/index.stories.tsx</title>
<path fill="none" stroke="#c6c5fe" d="M239.83,-527.75C239.83,-527.75 7.92,-527.75 7.92,-527.75 3.96,-527.75 0,-523.79 0,-519.83 0,-519.83 0,-511.92 0,-511.92 0,-507.96 3.96,-504 7.92,-504 7.92,-504 239.83,-504 239.83,-504 243.79,-504 247.75,-507.96 247.75,-511.92 247.75,-511.92 247.75,-519.83 247.75,-519.83 247.75,-523.79 243.79,-527.75 239.83,-527.75"/>
<text text-anchor="middle" x="123.88" y="-510.45" font-family="Arial" font-size="14.00" fill="#c6c5fe">components/ui/Button/index.stories.tsx</text>
</g>
<!-- components/ui/Button/index.tsx -->
<g id="node18" class="node">
<title>components/ui/Button/index.tsx</title>
<path fill="none" stroke="#cfffac" d="M490.58,-527.75C490.58,-527.75 302.17,-527.75 302.17,-527.75 298.21,-527.75 294.25,-523.79 294.25,-519.83 294.25,-519.83 294.25,-511.92 294.25,-511.92 294.25,-507.96 298.21,-504 302.17,-504 302.17,-504 490.58,-504 490.58,-504 494.54,-504 498.5,-507.96 498.5,-511.92 498.5,-511.92 498.5,-519.83 498.5,-519.83 498.5,-523.79 494.54,-527.75 490.58,-527.75"/>
<text text-anchor="middle" x="396.38" y="-510.45" font-family="Arial" font-size="14.00" fill="#cfffac">components/ui/Button/index.tsx</text>
</g>
<!-- components/ui/Button/index.stories.tsx&#45;&gt;components/ui/Button/index.tsx -->
<g id="edge3" class="edge">
<title>components/ui/Button/index.stories.tsx&#45;&gt;components/ui/Button/index.tsx</title>
<path fill="none" stroke="#757575" d="M247.86,-515.88C259.37,-515.88 271,-515.88 282.42,-515.88"/>
<polygon fill="#757575" stroke="#757575" points="282.24,-519.38 292.24,-515.88 282.24,-512.38 282.24,-519.38"/>
</g>
<!-- components/ui/index.ts -->
<g id="node19" class="node">
<title>components/ui/index.ts</title>
<path fill="none" stroke="#c6c5fe" d="M193.33,-569.75C193.33,-569.75 54.42,-569.75 54.42,-569.75 50.46,-569.75 46.5,-565.79 46.5,-561.83 46.5,-561.83 46.5,-553.92 46.5,-553.92 46.5,-549.96 50.46,-546 54.42,-546 54.42,-546 193.33,-546 193.33,-546 197.29,-546 201.25,-549.96 201.25,-553.92 201.25,-553.92 201.25,-561.83 201.25,-561.83 201.25,-565.79 197.29,-569.75 193.33,-569.75"/>
<text text-anchor="middle" x="123.88" y="-552.45" font-family="Arial" font-size="14.00" fill="#c6c5fe">components/ui/index.ts</text>
</g>
<!-- components/ui/index.ts&#45;&gt;components/ui/Accordion/index.tsx -->
<g id="edge4" class="edge">
<title>components/ui/index.ts&#45;&gt;components/ui/Accordion/index.tsx</title>
<path fill="none" stroke="#757575" d="M201.67,-569.8C233.8,-574.79 271.39,-580.62 304.86,-585.82"/>
<polygon fill="#757575" stroke="#757575" points="304.12,-589.25 314.54,-587.32 305.2,-582.33 304.12,-589.25"/>
</g>
<!-- components/ui/index.ts&#45;&gt;components/ui/Alert/index.tsx -->
<g id="edge5" class="edge">
<title>components/ui/index.ts&#45;&gt;components/ui/Alert/index.tsx</title>
<path fill="none" stroke="#757575" d="M201.67,-557.88C228.55,-557.88 259.26,-557.88 288.18,-557.88"/>
<polygon fill="#757575" stroke="#757575" points="288.07,-561.38 298.07,-557.88 288.07,-554.38 288.07,-561.38"/>
</g>
<!-- components/ui/index.ts&#45;&gt;components/ui/Button/index.tsx -->
<g id="edge6" class="edge">
<title>components/ui/index.ts&#45;&gt;components/ui/Button/index.tsx</title>
<path fill="none" stroke="#757575" d="M201.67,-545.95C233.8,-540.96 271.39,-535.13 304.86,-529.93"/>
<polygon fill="#757575" stroke="#757575" points="305.2,-533.42 314.54,-528.43 304.12,-526.5 305.2,-533.42"/>
</g>
<!-- cypress.config.ts -->
<g id="node20" class="node">
<title>cypress.config.ts</title>
<path fill="none" stroke="#cfffac" d="M174.21,-611.75C174.21,-611.75 73.54,-611.75 73.54,-611.75 69.58,-611.75 65.62,-607.79 65.62,-603.83 65.62,-603.83 65.62,-595.92 65.62,-595.92 65.62,-591.96 69.58,-588 73.54,-588 73.54,-588 174.21,-588 174.21,-588 178.17,-588 182.12,-591.96 182.12,-595.92 182.12,-595.92 182.12,-603.83 182.12,-603.83 182.12,-607.79 178.17,-611.75 174.21,-611.75"/>
<text text-anchor="middle" x="123.88" y="-594.45" font-family="Arial" font-size="14.00" fill="#cfffac">cypress.config.ts</text>
</g>
<!-- cypress/support/commands.ts -->
<g id="node21" class="node">
<title>cypress/support/commands.ts</title>
<path fill="none" stroke="#cfffac" d="M486.83,-653.75C486.83,-653.75 305.92,-653.75 305.92,-653.75 301.96,-653.75 298,-649.79 298,-645.83 298,-645.83 298,-637.92 298,-637.92 298,-633.96 301.96,-630 305.92,-630 305.92,-630 486.83,-630 486.83,-630 490.79,-630 494.75,-633.96 494.75,-637.92 494.75,-637.92 494.75,-645.83 494.75,-645.83 494.75,-649.79 490.79,-653.75 486.83,-653.75"/>
<text text-anchor="middle" x="396.38" y="-636.45" font-family="Arial" font-size="14.00" fill="#cfffac">cypress/support/commands.ts</text>
</g>
<!-- cypress/support/e2e.ts -->
<g id="node22" class="node">
<title>cypress/support/e2e.ts</title>
<path fill="none" stroke="#c6c5fe" d="M191.83,-653.75C191.83,-653.75 55.92,-653.75 55.92,-653.75 51.96,-653.75 48,-649.79 48,-645.83 48,-645.83 48,-637.92 48,-637.92 48,-633.96 51.96,-630 55.92,-630 55.92,-630 191.83,-630 191.83,-630 195.79,-630 199.75,-633.96 199.75,-637.92 199.75,-637.92 199.75,-645.83 199.75,-645.83 199.75,-649.79 195.79,-653.75 191.83,-653.75"/>
<text text-anchor="middle" x="123.88" y="-636.45" font-family="Arial" font-size="14.00" fill="#c6c5fe">cypress/support/e2e.ts</text>
</g>
<!-- cypress/support/e2e.ts&#45;&gt;cypress/support/commands.ts -->
<g id="edge7" class="edge">
<title>cypress/support/e2e.ts&#45;&gt;cypress/support/commands.ts</title>
<path fill="none" stroke="#757575" d="M200.22,-641.88C226.86,-641.88 257.38,-641.88 286.25,-641.88"/>
<polygon fill="#757575" stroke="#757575" points="286.13,-645.38 296.13,-641.88 286.13,-638.38 286.13,-645.38"/>
</g>
<!-- hooks/index.ts -->
<g id="node23" class="node">
<title>hooks/index.ts</title>
<path fill="none" stroke="#cfffac" d="M167.08,-695.75C167.08,-695.75 80.67,-695.75 80.67,-695.75 76.71,-695.75 72.75,-691.79 72.75,-687.83 72.75,-687.83 72.75,-679.92 72.75,-679.92 72.75,-675.96 76.71,-672 80.67,-672 80.67,-672 167.08,-672 167.08,-672 171.04,-672 175,-675.96 175,-679.92 175,-679.92 175,-687.83 175,-687.83 175,-691.79 171.04,-695.75 167.08,-695.75"/>
<text text-anchor="middle" x="123.88" y="-678.45" font-family="Arial" font-size="14.00" fill="#cfffac">hooks/index.ts</text>
</g>
<!-- lib/index.ts -->
<g id="node24" class="node">
<title>lib/index.ts</title>
<path fill="none" stroke="#c6c5fe" d="M155.83,-737.75C155.83,-737.75 91.92,-737.75 91.92,-737.75 87.96,-737.75 84,-733.79 84,-729.83 84,-729.83 84,-721.92 84,-721.92 84,-717.96 87.96,-714 91.92,-714 91.92,-714 155.83,-714 155.83,-714 159.79,-714 163.75,-717.96 163.75,-721.92 163.75,-721.92 163.75,-729.83 163.75,-729.83 163.75,-733.79 159.79,-737.75 155.83,-737.75"/>
<text text-anchor="middle" x="123.88" y="-720.45" font-family="Arial" font-size="14.00" fill="#c6c5fe">lib/index.ts</text>
</g>
<!-- lib/utils.ts -->
<g id="node25" class="node">
<title>lib/utils.ts</title>
<path fill="none" stroke="#cfffac" d="M424.21,-737.75C424.21,-737.75 368.54,-737.75 368.54,-737.75 364.58,-737.75 360.62,-733.79 360.62,-729.83 360.62,-729.83 360.62,-721.92 360.62,-721.92 360.62,-717.96 364.58,-714 368.54,-714 368.54,-714 424.21,-714 424.21,-714 428.17,-714 432.12,-717.96 432.12,-721.92 432.12,-721.92 432.12,-729.83 432.12,-729.83 432.12,-733.79 428.17,-737.75 424.21,-737.75"/>
<text text-anchor="middle" x="396.38" y="-720.45" font-family="Arial" font-size="14.00" fill="#cfffac">lib/utils.ts</text>
</g>
<!-- lib/index.ts&#45;&gt;lib/utils.ts -->
<g id="edge8" class="edge">
<title>lib/index.ts&#45;&gt;lib/utils.ts</title>
<path fill="none" stroke="#757575" d="M164.21,-725.88C213.25,-725.88 296.95,-725.88 349.05,-725.88"/>
<polygon fill="#757575" stroke="#757575" points="348.78,-729.38 358.78,-725.88 348.78,-722.38 348.78,-729.38"/>
</g>
<!-- middleware.ts -->
<g id="node26" class="node">
<title>middleware.ts</title>
<path fill="none" stroke="#cfffac" d="M165.96,-779.75C165.96,-779.75 81.79,-779.75 81.79,-779.75 77.83,-779.75 73.88,-775.79 73.88,-771.83 73.88,-771.83 73.88,-763.92 73.88,-763.92 73.88,-759.96 77.83,-756 81.79,-756 81.79,-756 165.96,-756 165.96,-756 169.92,-756 173.88,-759.96 173.88,-763.92 173.88,-763.92 173.88,-771.83 173.88,-771.83 173.88,-775.79 169.92,-779.75 165.96,-779.75"/>
<text text-anchor="middle" x="123.88" y="-762.45" font-family="Arial" font-size="14.00" fill="#cfffac">middleware.ts</text>
</g>
<!-- next.config.ts -->
<g id="node27" class="node">
<title>next.config.ts</title>
<path fill="none" stroke="#cfffac" d="M163.71,-821.75C163.71,-821.75 84.04,-821.75 84.04,-821.75 80.08,-821.75 76.12,-817.79 76.12,-813.83 76.12,-813.83 76.12,-805.92 76.12,-805.92 76.12,-801.96 80.08,-798 84.04,-798 84.04,-798 163.71,-798 163.71,-798 167.67,-798 171.62,-801.96 171.62,-805.92 171.62,-805.92 171.62,-813.83 171.62,-813.83 171.62,-817.79 167.67,-821.75 163.71,-821.75"/>
<text text-anchor="middle" x="123.88" y="-804.45" font-family="Arial" font-size="14.00" fill="#cfffac">next.config.ts</text>
</g>
<!-- types/index.d.ts -->
<g id="node28" class="node">
<title>types/index.d.ts</title>
<path fill="none" stroke="#cfffac" d="M170.83,-863.75C170.83,-863.75 76.92,-863.75 76.92,-863.75 72.96,-863.75 69,-859.79 69,-855.83 69,-855.83 69,-847.92 69,-847.92 69,-843.96 72.96,-840 76.92,-840 76.92,-840 170.83,-840 170.83,-840 174.79,-840 178.75,-843.96 178.75,-847.92 178.75,-847.92 178.75,-855.83 178.75,-855.83 178.75,-859.79 174.79,-863.75 170.83,-863.75"/>
<text text-anchor="middle" x="123.88" y="-846.45" font-family="Arial" font-size="14.00" fill="#cfffac">types/index.d.ts</text>
</g>
<!-- vitest.config.ts -->
<g id="node29" class="node">
<title>vitest.config.ts</title>
<path fill="none" stroke="#cfffac" d="M166.71,-905.75C166.71,-905.75 81.04,-905.75 81.04,-905.75 77.08,-905.75 73.12,-901.79 73.12,-897.83 73.12,-897.83 73.12,-889.92 73.12,-889.92 73.12,-885.96 77.08,-882 81.04,-882 81.04,-882 166.71,-882 166.71,-882 170.67,-882 174.62,-885.96 174.62,-889.92 174.62,-889.92 174.62,-897.83 174.62,-897.83 174.62,-901.79 170.67,-905.75 166.71,-905.75"/>
<text text-anchor="middle" x="123.88" y="-888.45" font-family="Arial" font-size="14.00" fill="#cfffac">vitest.config.ts</text>
</g>
</g>
</svg>
