<?xml version="1.0" encoding="UTF-8" standalone="no"?>
<!DOCTYPE svg PUBLIC "-//W3C//DTD SVG 1.1//EN"
 "http://www.w3.org/Graphics/SVG/1.1/DTD/svg11.dtd">
<!-- Generated by graphviz version 8.0.5 (20230430.1635)
 -->
<!-- Title: G Pages: 1 -->
<svg width="199pt" height="487pt"
 viewBox="0.00 0.00 199.45 486.95" xmlns="http://www.w3.org/2000/svg" xmlns:xlink="http://www.w3.org/1999/xlink">
<g id="graph0" class="graph" transform="scale(1 1) rotate(0) translate(21.6 465.35)">
<title>G</title>
<polygon fill="#111111" stroke="none" points="-21.6,21.6 -21.6,-465.35 177.85,-465.35 177.85,21.6 -21.6,21.6"/>
<!-- __tests__/index.ts -->
<g id="node1" class="node">
<title>__tests__/index.ts</title>
<path fill="none" stroke="#cfffac" d="M132.58,-23.75C132.58,-23.75 23.67,-23.75 23.67,-23.75 19.71,-23.75 15.75,-19.79 15.75,-15.83 15.75,-15.83 15.75,-7.92 15.75,-7.92 15.75,-3.96 19.71,0 23.67,0 23.67,0 132.58,0 132.58,0 136.54,0 140.5,-3.96 140.5,-7.92 140.5,-7.92 140.5,-15.83 140.5,-15.83 140.5,-19.79 136.54,-23.75 132.58,-23.75"/>
<text text-anchor="middle" x="78.12" y="-6.45" font-family="Arial" font-size="14.00" fill="#cfffac">__tests__/index.ts</text>
</g>
<!-- components/index.ts -->
<g id="node2" class="node">
<title>components/index.ts</title>
<path fill="none" stroke="#cfffac" d="M140.46,-65.75C140.46,-65.75 15.79,-65.75 15.79,-65.75 11.83,-65.75 7.88,-61.79 7.88,-57.83 7.88,-57.83 7.88,-49.92 7.88,-49.92 7.88,-45.96 11.83,-42 15.79,-42 15.79,-42 140.46,-42 140.46,-42 144.42,-42 148.38,-45.96 148.38,-49.92 148.38,-49.92 148.38,-57.83 148.38,-57.83 148.38,-61.79 144.42,-65.75 140.46,-65.75"/>
<text text-anchor="middle" x="78.12" y="-48.45" font-family="Arial" font-size="14.00" fill="#cfffac">components/index.ts</text>
</g>
<!-- hooks/index.ts -->
<g id="node3" class="node">
<title>hooks/index.ts</title>
<path fill="none" stroke="#cfffac" d="M121.33,-107.75C121.33,-107.75 34.92,-107.75 34.92,-107.75 30.96,-107.75 27,-103.79 27,-99.83 27,-99.83 27,-91.92 27,-91.92 27,-87.96 30.96,-84 34.92,-84 34.92,-84 121.33,-84 121.33,-84 125.29,-84 129.25,-87.96 129.25,-91.92 129.25,-91.92 129.25,-99.83 129.25,-99.83 129.25,-103.79 125.29,-107.75 121.33,-107.75"/>
<text text-anchor="middle" x="78.12" y="-90.45" font-family="Arial" font-size="14.00" fill="#cfffac">hooks/index.ts</text>
</g>
<!-- lib/index.ts -->
<g id="node4" class="node">
<title>lib/index.ts</title>
<path fill="none" stroke="#cfffac" d="M110.08,-149.75C110.08,-149.75 46.17,-149.75 46.17,-149.75 42.21,-149.75 38.25,-145.79 38.25,-141.83 38.25,-141.83 38.25,-133.92 38.25,-133.92 38.25,-129.96 42.21,-126 46.17,-126 46.17,-126 110.08,-126 110.08,-126 114.04,-126 118,-129.96 118,-133.92 118,-133.92 118,-141.83 118,-141.83 118,-145.79 114.04,-149.75 110.08,-149.75"/>
<text text-anchor="middle" x="78.12" y="-132.45" font-family="Arial" font-size="14.00" fill="#cfffac">lib/index.ts</text>
</g>
<!-- pages/_app.tsx -->
<g id="node5" class="node">
<title>pages/_app.tsx</title>
<path fill="none" stroke="#cfffac" d="M123.96,-191.75C123.96,-191.75 32.29,-191.75 32.29,-191.75 28.33,-191.75 24.38,-187.79 24.38,-183.83 24.38,-183.83 24.38,-175.92 24.38,-175.92 24.38,-171.96 28.33,-168 32.29,-168 32.29,-168 123.96,-168 123.96,-168 127.92,-168 131.88,-171.96 131.88,-175.92 131.88,-175.92 131.88,-183.83 131.88,-183.83 131.88,-187.79 127.92,-191.75 123.96,-191.75"/>
<text text-anchor="middle" x="78.12" y="-174.45" font-family="Arial" font-size="14.00" fill="#cfffac">pages/_app.tsx</text>
</g>
<!-- pages/_document.tsx -->
<g id="node6" class="node">
<title>pages/_document.tsx</title>
<path fill="none" stroke="#cfffac" d="M142.71,-233.75C142.71,-233.75 13.54,-233.75 13.54,-233.75 9.58,-233.75 5.62,-229.79 5.62,-225.83 5.62,-225.83 5.62,-217.92 5.62,-217.92 5.62,-213.96 9.58,-210 13.54,-210 13.54,-210 142.71,-210 142.71,-210 146.67,-210 150.62,-213.96 150.62,-217.92 150.62,-217.92 150.62,-225.83 150.62,-225.83 150.62,-229.79 146.67,-233.75 142.71,-233.75"/>
<text text-anchor="middle" x="78.12" y="-216.45" font-family="Arial" font-size="14.00" fill="#cfffac">pages/_document.tsx</text>
</g>
<!-- pages/api/helloWorld.ts -->
<g id="node7" class="node">
<title>pages/api/helloWorld.ts</title>
<path fill="none" stroke="#cfffac" d="M148.33,-275.75C148.33,-275.75 7.92,-275.75 7.92,-275.75 3.96,-275.75 0,-271.79 0,-267.83 0,-267.83 0,-259.92 0,-259.92 0,-255.96 3.96,-252 7.92,-252 7.92,-252 148.33,-252 148.33,-252 152.29,-252 156.25,-255.96 156.25,-259.92 156.25,-259.92 156.25,-267.83 156.25,-267.83 156.25,-271.79 152.29,-275.75 148.33,-275.75"/>
<text text-anchor="middle" x="78.12" y="-258.45" font-family="Arial" font-size="14.00" fill="#cfffac">pages/api/helloWorld.ts</text>
</g>
<!-- pages/index.tsx -->
<g id="node8" class="node">
<title>pages/index.tsx</title>
<path fill="none" stroke="#cfffac" d="M125.08,-317.75C125.08,-317.75 31.17,-317.75 31.17,-317.75 27.21,-317.75 23.25,-313.79 23.25,-309.83 23.25,-309.83 23.25,-301.92 23.25,-301.92 23.25,-297.96 27.21,-294 31.17,-294 31.17,-294 125.08,-294 125.08,-294 129.04,-294 133,-297.96 133,-301.92 133,-301.92 133,-309.83 133,-309.83 133,-313.79 129.04,-317.75 125.08,-317.75"/>
<text text-anchor="middle" x="78.12" y="-300.45" font-family="Arial" font-size="14.00" fill="#cfffac">pages/index.tsx</text>
</g>
<!-- styles/globals.scss -->
<g id="node9" class="node">
<title>styles/globals.scss</title>
<path fill="none" stroke="#cfffac" d="M134.08,-359.75C134.08,-359.75 22.17,-359.75 22.17,-359.75 18.21,-359.75 14.25,-355.79 14.25,-351.83 14.25,-351.83 14.25,-343.92 14.25,-343.92 14.25,-339.96 18.21,-336 22.17,-336 22.17,-336 134.08,-336 134.08,-336 138.04,-336 142,-339.96 142,-343.92 142,-343.92 142,-351.83 142,-351.83 142,-355.79 138.04,-359.75 134.08,-359.75"/>
<text text-anchor="middle" x="78.12" y="-342.45" font-family="Arial" font-size="14.00" fill="#cfffac">styles/globals.scss</text>
</g>
<!-- types/index.d.ts -->
<g id="node10" class="node">
<title>types/index.d.ts</title>
<path fill="none" stroke="#cfffac" d="M125.08,-401.75C125.08,-401.75 31.17,-401.75 31.17,-401.75 27.21,-401.75 23.25,-397.79 23.25,-393.83 23.25,-393.83 23.25,-385.92 23.25,-385.92 23.25,-381.96 27.21,-378 31.17,-378 31.17,-378 125.08,-378 125.08,-378 129.04,-378 133,-381.96 133,-385.92 133,-385.92 133,-393.83 133,-393.83 133,-397.79 129.04,-401.75 125.08,-401.75"/>
<text text-anchor="middle" x="78.12" y="-384.45" font-family="Arial" font-size="14.00" fill="#cfffac">types/index.d.ts</text>
</g>
<!-- vitest.config.ts -->
<g id="node11" class="node">
<title>vitest.config.ts</title>
<path fill="none" stroke="#cfffac" d="M120.96,-443.75C120.96,-443.75 35.29,-443.75 35.29,-443.75 31.33,-443.75 27.38,-439.79 27.38,-435.83 27.38,-435.83 27.38,-427.92 27.38,-427.92 27.38,-423.96 31.33,-420 35.29,-420 35.29,-420 120.96,-420 120.96,-420 124.92,-420 128.88,-423.96 128.88,-427.92 128.88,-427.92 128.88,-435.83 128.88,-435.83 128.88,-439.79 124.92,-443.75 120.96,-443.75"/>
<text text-anchor="middle" x="78.12" y="-426.45" font-family="Arial" font-size="14.00" fill="#cfffac">vitest.config.ts</text>
</g>
</g>
</svg>
